<svg xmlns="http://www.w3.org/2000/svg" width="800" height="200" viewBox="0 0 800 200">
  <style>
    
    .pf-header { animation: pf-pop 30s ease-out infinite; }
    .pf-underline { animation: pf-wipe 30s ease-out infinite; transform-origin: 36px center; }
    .pf-caption { animation: pf-pop 30s ease-out infinite; animation-delay: 1.50s; }
    .pf-tile { animation: pf-pop 30s ease-out infinite; }
    .pf-tile-0 { animation-delay: 3.60s; }
    .pf-tile-1 { animation-delay: 5.10s; }
    .pf-tile-2 { animation-delay: 6.60s; }
    
    .pf-heart-beat { transform-origin: 396.4px 174px; animation: pf-heartbeat 15s ease-in-out infinite; }
    @keyframes pf-pop {
      0%, 6%   { opacity: 0; transform: translateY(-4px); }
      18%, 88% { opacity: 1; transform: translateY(0); }
      100%     { opacity: 0; transform: translateY(0); }
    }
    @keyframes pf-wipe {
      0%, 10%  { transform: scaleX(0); }
      28%, 88% { transform: scaleX(1); }
      100%     { transform: scaleX(1); }
    }
    @keyframes pf-heartbeat {
      0%, 100% { transform: scale(1); }
      50%      { transform: scale(1.15); }
    }
  </style>

  <rect x="0" y="0" width="800" height="200" fill="#3a2a14"/><rect x="2" y="2" width="796" height="196" fill="#7a4a23"/><rect x="2" y="2" width="796" height="1" fill="#a06832"/><rect x="2" y="2" width="1" height="196" fill="#a06832"/><rect x="6" y="6" width="788" height="188" fill="#3a2a14"/><rect x="8" y="8" width="784" height="184" fill="#f4e4bc"/>

  <!-- header + caption -->
  <g class="pf-header"><rect x="36" y="30" width="4" height="4" fill="#3d2818"/><rect x="40" y="30" width="4" height="4" fill="#3d2818"/><rect x="44" y="30" width="4" height="4" fill="#3d2818"/><rect x="48" y="30" width="4" height="4" fill="#3d2818"/><rect x="52" y="30" width="4" height="4" fill="#3d2818"/><rect x="36" y="34" width="4" height="4" fill="#3d2818"/><rect x="36" y="38" width="4" height="4" fill="#3d2818"/><rect x="36" y="42" width="4" height="4" fill="#3d2818"/><rect x="40" y="42" width="4" height="4" fill="#3d2818"/><rect x="44" y="42" width="4" height="4" fill="#3d2818"/><rect x="48" y="42" width="4" height="4" fill="#3d2818"/><rect x="36" y="46" width="4" height="4" fill="#3d2818"/><rect x="36" y="50" width="4" height="4" fill="#3d2818"/><rect x="36" y="54" width="4" height="4" fill="#3d2818"/><rect x="60" y="30" width="4" height="4" fill="#3d2818"/><rect x="64" y="30" width="4" height="4" fill="#3d2818"/><rect x="68" y="30" width="4" height="4" fill="#3d2818"/><rect x="72" y="30" width="4" height="4" fill="#3d2818"/><rect x="60" y="34" width="4" height="4" fill="#3d2818"/><rect x="76" y="34" width="4" height="4" fill="#3d2818"/><rect x="60" y="38" width="4" height="4" fill="#3d2818"/><rect x="76" y="38" width="4" height="4" fill="#3d2818"/><rect x="60" y="42" width="4" height="4" fill="#3d2818"/><rect x="64" y="42" width="4" height="4" fill="#3d2818"/><rect x="68" y="42" width="4" height="4" fill="#3d2818"/><rect x="72" y="42" width="4" height="4" fill="#3d2818"/><rect x="60" y="46" width="4" height="4" fill="#3d2818"/><rect x="68" y="46" width="4" height="4" fill="#3d2818"/><rect x="60" y="50" width="4" height="4" fill="#3d2818"/><rect x="72" y="50" width="4" height="4" fill="#3d2818"/><rect x="60" y="54" width="4" height="4" fill="#3d2818"/><rect x="76" y="54" width="4" height="4" fill="#3d2818"/><rect x="84" y="30" width="4" height="4" fill="#3d2818"/><rect x="88" y="30" width="4" height="4" fill="#3d2818"/><rect x="92" y="30" width="4" height="4" fill="#3d2818"/><rect x="96" y="30" width="4" height="4" fill="#3d2818"/><rect x="100" y="30" width="4" height="4" fill="#3d2818"/><rect x="92" y="34" width="4" height="4" fill="#3d2818"/><rect x="92" y="38" width="4" height="4" fill="#3d2818"/><rect x="92" y="42" width="4" height="4" fill="#3d2818"/><rect x="92" y="46" width="4" height="4" fill="#3d2818"/><rect x="92" y="50" width="4" height="4" fill="#3d2818"/><rect x="84" y="54" width="4" height="4" fill="#3d2818"/><rect x="88" y="54" width="4" height="4" fill="#3d2818"/><rect x="92" y="54" width="4" height="4" fill="#3d2818"/><rect x="96" y="54" width="4" height="4" fill="#3d2818"/><rect x="100" y="54" width="4" height="4" fill="#3d2818"/><rect x="108" y="30" width="4" height="4" fill="#3d2818"/><rect x="112" y="30" width="4" height="4" fill="#3d2818"/><rect x="116" y="30" width="4" height="4" fill="#3d2818"/><rect x="120" y="30" width="4" height="4" fill="#3d2818"/><rect x="124" y="30" width="4" height="4" fill="#3d2818"/><rect x="108" y="34" width="4" height="4" fill="#3d2818"/><rect x="108" y="38" width="4" height="4" fill="#3d2818"/><rect x="108" y="42" width="4" height="4" fill="#3d2818"/><rect x="112" y="42" width="4" height="4" fill="#3d2818"/><rect x="116" y="42" width="4" height="4" fill="#3d2818"/><rect x="120" y="42" width="4" height="4" fill="#3d2818"/><rect x="108" y="46" width="4" height="4" fill="#3d2818"/><rect x="108" y="50" width="4" height="4" fill="#3d2818"/><rect x="108" y="54" width="4" height="4" fill="#3d2818"/><rect x="112" y="54" width="4" height="4" fill="#3d2818"/><rect x="116" y="54" width="4" height="4" fill="#3d2818"/><rect x="120" y="54" width="4" height="4" fill="#3d2818"/><rect x="124" y="54" width="4" height="4" fill="#3d2818"/><rect x="132" y="30" width="4" height="4" fill="#3d2818"/><rect x="148" y="30" width="4" height="4" fill="#3d2818"/><rect x="132" y="34" width="4" height="4" fill="#3d2818"/><rect x="136" y="34" width="4" height="4" fill="#3d2818"/><rect x="148" y="34" width="4" height="4" fill="#3d2818"/><rect x="132" y="38" width="4" height="4" fill="#3d2818"/><rect x="140" y="38" width="4" height="4" fill="#3d2818"/><rect x="148" y="38" width="4" height="4" fill="#3d2818"/><rect x="132" y="42" width="4" height="4" fill="#3d2818"/><rect x="140" y="42" width="4" height="4" fill="#3d2818"/><rect x="148" y="42" width="4" height="4" fill="#3d2818"/><rect x="132" y="46" width="4" height="4" fill="#3d2818"/><rect x="140" y="46" width="4" height="4" fill="#3d2818"/><rect x="148" y="46" width="4" height="4" fill="#3d2818"/><rect x="132" y="50" width="4" height="4" fill="#3d2818"/><rect x="144" y="50" width="4" height="4" fill="#3d2818"/><rect x="148" y="50" width="4" height="4" fill="#3d2818"/><rect x="132" y="54" width="4" height="4" fill="#3d2818"/><rect x="148" y="54" width="4" height="4" fill="#3d2818"/><rect x="156" y="30" width="4" height="4" fill="#3d2818"/><rect x="160" y="30" width="4" height="4" fill="#3d2818"/><rect x="164" y="30" width="4" height="4" fill="#3d2818"/><rect x="168" y="30" width="4" height="4" fill="#3d2818"/><rect x="156" y="34" width="4" height="4" fill="#3d2818"/><rect x="172" y="34" width="4" height="4" fill="#3d2818"/><rect x="156" y="38" width="4" height="4" fill="#3d2818"/><rect x="172" y="38" width="4" height="4" fill="#3d2818"/><rect x="156" y="42" width="4" height="4" fill="#3d2818"/><rect x="172" y="42" width="4" height="4" fill="#3d2818"/><rect x="156" y="46" width="4" height="4" fill="#3d2818"/><rect x="172" y="46" width="4" height="4" fill="#3d2818"/><rect x="156" y="50" width="4" height="4" fill="#3d2818"/><rect x="172" y="50" width="4" height="4" fill="#3d2818"/><rect x="156" y="54" width="4" height="4" fill="#3d2818"/><rect x="160" y="54" width="4" height="4" fill="#3d2818"/><rect x="164" y="54" width="4" height="4" fill="#3d2818"/><rect x="168" y="54" width="4" height="4" fill="#3d2818"/><rect x="184" y="30" width="4" height="4" fill="#3d2818"/><rect x="188" y="30" width="4" height="4" fill="#3d2818"/><rect x="192" y="30" width="4" height="4" fill="#3d2818"/><rect x="196" y="30" width="4" height="4" fill="#3d2818"/><rect x="180" y="34" width="4" height="4" fill="#3d2818"/><rect x="180" y="38" width="4" height="4" fill="#3d2818"/><rect x="184" y="42" width="4" height="4" fill="#3d2818"/><rect x="188" y="42" width="4" height="4" fill="#3d2818"/><rect x="192" y="42" width="4" height="4" fill="#3d2818"/><rect x="196" y="46" width="4" height="4" fill="#3d2818"/><rect x="196" y="50" width="4" height="4" fill="#3d2818"/><rect x="180" y="54" width="4" height="4" fill="#3d2818"/><rect x="184" y="54" width="4" height="4" fill="#3d2818"/><rect x="188" y="54" width="4" height="4" fill="#3d2818"/><rect x="192" y="54" width="4" height="4" fill="#3d2818"/><rect x="204" y="30" width="4" height="4" fill="#3d2818"/><rect x="220" y="30" width="4" height="4" fill="#3d2818"/><rect x="204" y="34" width="4" height="4" fill="#3d2818"/><rect x="220" y="34" width="4" height="4" fill="#3d2818"/><rect x="204" y="38" width="4" height="4" fill="#3d2818"/><rect x="220" y="38" width="4" height="4" fill="#3d2818"/><rect x="204" y="42" width="4" height="4" fill="#3d2818"/><rect x="208" y="42" width="4" height="4" fill="#3d2818"/><rect x="212" y="42" width="4" height="4" fill="#3d2818"/><rect x="216" y="42" width="4" height="4" fill="#3d2818"/><rect x="220" y="42" width="4" height="4" fill="#3d2818"/><rect x="204" y="46" width="4" height="4" fill="#3d2818"/><rect x="220" y="46" width="4" height="4" fill="#3d2818"/><rect x="204" y="50" width="4" height="4" fill="#3d2818"/><rect x="220" y="50" width="4" height="4" fill="#3d2818"/><rect x="204" y="54" width="4" height="4" fill="#3d2818"/><rect x="220" y="54" width="4" height="4" fill="#3d2818"/><rect x="228" y="30" width="4" height="4" fill="#3d2818"/><rect x="232" y="30" width="4" height="4" fill="#3d2818"/><rect x="236" y="30" width="4" height="4" fill="#3d2818"/><rect x="240" y="30" width="4" height="4" fill="#3d2818"/><rect x="244" y="30" width="4" height="4" fill="#3d2818"/><rect x="236" y="34" width="4" height="4" fill="#3d2818"/><rect x="236" y="38" width="4" height="4" fill="#3d2818"/><rect x="236" y="42" width="4" height="4" fill="#3d2818"/><rect x="236" y="46" width="4" height="4" fill="#3d2818"/><rect x="236" y="50" width="4" height="4" fill="#3d2818"/><rect x="228" y="54" width="4" height="4" fill="#3d2818"/><rect x="232" y="54" width="4" height="4" fill="#3d2818"/><rect x="236" y="54" width="4" height="4" fill="#3d2818"/><rect x="240" y="54" width="4" height="4" fill="#3d2818"/><rect x="244" y="54" width="4" height="4" fill="#3d2818"/><rect x="252" y="30" width="4" height="4" fill="#3d2818"/><rect x="256" y="30" width="4" height="4" fill="#3d2818"/><rect x="260" y="30" width="4" height="4" fill="#3d2818"/><rect x="264" y="30" width="4" height="4" fill="#3d2818"/><rect x="252" y="34" width="4" height="4" fill="#3d2818"/><rect x="268" y="34" width="4" height="4" fill="#3d2818"/><rect x="252" y="38" width="4" height="4" fill="#3d2818"/><rect x="268" y="38" width="4" height="4" fill="#3d2818"/><rect x="252" y="42" width="4" height="4" fill="#3d2818"/><rect x="256" y="42" width="4" height="4" fill="#3d2818"/><rect x="260" y="42" width="4" height="4" fill="#3d2818"/><rect x="264" y="42" width="4" height="4" fill="#3d2818"/><rect x="252" y="46" width="4" height="4" fill="#3d2818"/><rect x="252" y="50" width="4" height="4" fill="#3d2818"/><rect x="252" y="54" width="4" height="4" fill="#3d2818"/></g>
  <g class="pf-caption"><rect x="586" y="37" width="2" height="2" fill="#7a4a23"/><rect x="588" y="37" width="2" height="2" fill="#7a4a23"/><rect x="590" y="37" width="2" height="2" fill="#7a4a23"/><rect x="592" y="37" width="2" height="2" fill="#7a4a23"/><rect x="586" y="39" width="2" height="2" fill="#7a4a23"/><rect x="594" y="39" width="2" height="2" fill="#7a4a23"/><rect x="586" y="41" width="2" height="2" fill="#7a4a23"/><rect x="594" y="41" width="2" height="2" fill="#7a4a23"/><rect x="586" y="43" width="2" height="2" fill="#7a4a23"/><rect x="588" y="43" width="2" height="2" fill="#7a4a23"/><rect x="590" y="43" width="2" height="2" fill="#7a4a23"/><rect x="592" y="43" width="2" height="2" fill="#7a4a23"/><rect x="586" y="45" width="2" height="2" fill="#7a4a23"/><rect x="594" y="45" width="2" height="2" fill="#7a4a23"/><rect x="586" y="47" width="2" height="2" fill="#7a4a23"/><rect x="594" y="47" width="2" height="2" fill="#7a4a23"/><rect x="586" y="49" width="2" height="2" fill="#7a4a23"/><rect x="588" y="49" width="2" height="2" fill="#7a4a23"/><rect x="590" y="49" width="2" height="2" fill="#7a4a23"/><rect x="592" y="49" width="2" height="2" fill="#7a4a23"/><rect x="598" y="37" width="2" height="2" fill="#7a4a23"/><rect x="606" y="37" width="2" height="2" fill="#7a4a23"/><rect x="598" y="39" width="2" height="2" fill="#7a4a23"/><rect x="606" y="39" width="2" height="2" fill="#7a4a23"/><rect x="600" y="41" width="2" height="2" fill="#7a4a23"/><rect x="604" y="41" width="2" height="2" fill="#7a4a23"/><rect x="602" y="43" width="2" height="2" fill="#7a4a23"/><rect x="602" y="45" width="2" height="2" fill="#7a4a23"/><rect x="602" y="47" width="2" height="2" fill="#7a4a23"/><rect x="602" y="49" width="2" height="2" fill="#7a4a23"/><rect x="622" y="37" width="2" height="2" fill="#7a4a23"/><rect x="624" y="37" width="2" height="2" fill="#7a4a23"/><rect x="626" y="37" width="2" height="2" fill="#7a4a23"/><rect x="628" y="37" width="2" height="2" fill="#7a4a23"/><rect x="622" y="39" width="2" height="2" fill="#7a4a23"/><rect x="630" y="39" width="2" height="2" fill="#7a4a23"/><rect x="622" y="41" width="2" height="2" fill="#7a4a23"/><rect x="630" y="41" width="2" height="2" fill="#7a4a23"/><rect x="622" y="43" width="2" height="2" fill="#7a4a23"/><rect x="624" y="43" width="2" height="2" fill="#7a4a23"/><rect x="626" y="43" width="2" height="2" fill="#7a4a23"/><rect x="628" y="43" width="2" height="2" fill="#7a4a23"/><rect x="622" y="45" width="2" height="2" fill="#7a4a23"/><rect x="630" y="45" width="2" height="2" fill="#7a4a23"/><rect x="622" y="47" width="2" height="2" fill="#7a4a23"/><rect x="630" y="47" width="2" height="2" fill="#7a4a23"/><rect x="622" y="49" width="2" height="2" fill="#7a4a23"/><rect x="624" y="49" width="2" height="2" fill="#7a4a23"/><rect x="626" y="49" width="2" height="2" fill="#7a4a23"/><rect x="628" y="49" width="2" height="2" fill="#7a4a23"/><rect x="636" y="37" width="2" height="2" fill="#7a4a23"/><rect x="638" y="37" width="2" height="2" fill="#7a4a23"/><rect x="640" y="37" width="2" height="2" fill="#7a4a23"/><rect x="634" y="39" width="2" height="2" fill="#7a4a23"/><rect x="642" y="39" width="2" height="2" fill="#7a4a23"/><rect x="634" y="41" width="2" height="2" fill="#7a4a23"/><rect x="642" y="41" width="2" height="2" fill="#7a4a23"/><rect x="634" y="43" width="2" height="2" fill="#7a4a23"/><rect x="642" y="43" width="2" height="2" fill="#7a4a23"/><rect x="634" y="45" width="2" height="2" fill="#7a4a23"/><rect x="642" y="45" width="2" height="2" fill="#7a4a23"/><rect x="634" y="47" width="2" height="2" fill="#7a4a23"/><rect x="642" y="47" width="2" height="2" fill="#7a4a23"/><rect x="636" y="49" width="2" height="2" fill="#7a4a23"/><rect x="638" y="49" width="2" height="2" fill="#7a4a23"/><rect x="640" y="49" width="2" height="2" fill="#7a4a23"/><rect x="646" y="37" width="2" height="2" fill="#7a4a23"/><rect x="654" y="37" width="2" height="2" fill="#7a4a23"/><rect x="646" y="39" width="2" height="2" fill="#7a4a23"/><rect x="654" y="39" width="2" height="2" fill="#7a4a23"/><rect x="646" y="41" width="2" height="2" fill="#7a4a23"/><rect x="654" y="41" width="2" height="2" fill="#7a4a23"/><rect x="646" y="43" width="2" height="2" fill="#7a4a23"/><rect x="654" y="43" width="2" height="2" fill="#7a4a23"/><rect x="646" y="45" width="2" height="2" fill="#7a4a23"/><rect x="654" y="45" width="2" height="2" fill="#7a4a23"/><rect x="646" y="47" width="2" height="2" fill="#7a4a23"/><rect x="654" y="47" width="2" height="2" fill="#7a4a23"/><rect x="648" y="49" width="2" height="2" fill="#7a4a23"/><rect x="650" y="49" width="2" height="2" fill="#7a4a23"/><rect x="652" y="49" width="2" height="2" fill="#7a4a23"/><rect x="658" y="37" width="2" height="2" fill="#7a4a23"/><rect x="666" y="37" width="2" height="2" fill="#7a4a23"/><rect x="658" y="39" width="2" height="2" fill="#7a4a23"/><rect x="660" y="39" width="2" height="2" fill="#7a4a23"/><rect x="666" y="39" width="2" height="2" fill="#7a4a23"/><rect x="658" y="41" width="2" height="2" fill="#7a4a23"/><rect x="662" y="41" width="2" height="2" fill="#7a4a23"/><rect x="666" y="41" width="2" height="2" fill="#7a4a23"/><rect x="658" y="43" width="2" height="2" fill="#7a4a23"/><rect x="662" y="43" width="2" height="2" fill="#7a4a23"/><rect x="666" y="43" width="2" height="2" fill="#7a4a23"/><rect x="658" y="45" width="2" height="2" fill="#7a4a23"/><rect x="662" y="45" width="2" height="2" fill="#7a4a23"/><rect x="666" y="45" width="2" height="2" fill="#7a4a23"/><rect x="658" y="47" width="2" height="2" fill="#7a4a23"/><rect x="664" y="47" width="2" height="2" fill="#7a4a23"/><rect x="666" y="47" width="2" height="2" fill="#7a4a23"/><rect x="658" y="49" width="2" height="2" fill="#7a4a23"/><rect x="666" y="49" width="2" height="2" fill="#7a4a23"/><rect x="670" y="37" width="2" height="2" fill="#7a4a23"/><rect x="672" y="37" width="2" height="2" fill="#7a4a23"/><rect x="674" y="37" width="2" height="2" fill="#7a4a23"/><rect x="676" y="37" width="2" height="2" fill="#7a4a23"/><rect x="678" y="37" width="2" height="2" fill="#7a4a23"/><rect x="670" y="39" width="2" height="2" fill="#7a4a23"/><rect x="670" y="41" width="2" height="2" fill="#7a4a23"/><rect x="670" y="43" width="2" height="2" fill="#7a4a23"/><rect x="672" y="43" width="2" height="2" fill="#7a4a23"/><rect x="674" y="43" width="2" height="2" fill="#7a4a23"/><rect x="676" y="43" width="2" height="2" fill="#7a4a23"/><rect x="670" y="45" width="2" height="2" fill="#7a4a23"/><rect x="670" y="47" width="2" height="2" fill="#7a4a23"/><rect x="670" y="49" width="2" height="2" fill="#7a4a23"/><rect x="672" y="49" width="2" height="2" fill="#7a4a23"/><rect x="674" y="49" width="2" height="2" fill="#7a4a23"/><rect x="676" y="49" width="2" height="2" fill="#7a4a23"/><rect x="678" y="49" width="2" height="2" fill="#7a4a23"/><rect x="682" y="37" width="2" height="2" fill="#7a4a23"/><rect x="684" y="37" width="2" height="2" fill="#7a4a23"/><rect x="686" y="37" width="2" height="2" fill="#7a4a23"/><rect x="688" y="37" width="2" height="2" fill="#7a4a23"/><rect x="682" y="39" width="2" height="2" fill="#7a4a23"/><rect x="690" y="39" width="2" height="2" fill="#7a4a23"/><rect x="682" y="41" width="2" height="2" fill="#7a4a23"/><rect x="690" y="41" width="2" height="2" fill="#7a4a23"/><rect x="682" y="43" width="2" height="2" fill="#7a4a23"/><rect x="684" y="43" width="2" height="2" fill="#7a4a23"/><rect x="686" y="43" width="2" height="2" fill="#7a4a23"/><rect x="688" y="43" width="2" height="2" fill="#7a4a23"/><rect x="682" y="45" width="2" height="2" fill="#7a4a23"/><rect x="690" y="45" width="2" height="2" fill="#7a4a23"/><rect x="682" y="47" width="2" height="2" fill="#7a4a23"/><rect x="690" y="47" width="2" height="2" fill="#7a4a23"/><rect x="682" y="49" width="2" height="2" fill="#7a4a23"/><rect x="684" y="49" width="2" height="2" fill="#7a4a23"/><rect x="686" y="49" width="2" height="2" fill="#7a4a23"/><rect x="688" y="49" width="2" height="2" fill="#7a4a23"/><rect x="706" y="37" width="2" height="2" fill="#7a4a23"/><rect x="708" y="37" width="2" height="2" fill="#7a4a23"/><rect x="710" y="37" width="2" height="2" fill="#7a4a23"/><rect x="712" y="37" width="2" height="2" fill="#7a4a23"/><rect x="706" y="39" width="2" height="2" fill="#7a4a23"/><rect x="714" y="39" width="2" height="2" fill="#7a4a23"/><rect x="706" y="41" width="2" height="2" fill="#7a4a23"/><rect x="714" y="41" width="2" height="2" fill="#7a4a23"/><rect x="706" y="43" width="2" height="2" fill="#7a4a23"/><rect x="708" y="43" width="2" height="2" fill="#7a4a23"/><rect x="710" y="43" width="2" height="2" fill="#7a4a23"/><rect x="712" y="43" width="2" height="2" fill="#7a4a23"/><rect x="706" y="45" width="2" height="2" fill="#7a4a23"/><rect x="710" y="45" width="2" height="2" fill="#7a4a23"/><rect x="706" y="47" width="2" height="2" fill="#7a4a23"/><rect x="712" y="47" width="2" height="2" fill="#7a4a23"/><rect x="706" y="49" width="2" height="2" fill="#7a4a23"/><rect x="714" y="49" width="2" height="2" fill="#7a4a23"/><rect x="720" y="37" width="2" height="2" fill="#7a4a23"/><rect x="722" y="37" width="2" height="2" fill="#7a4a23"/><rect x="724" y="37" width="2" height="2" fill="#7a4a23"/><rect x="718" y="39" width="2" height="2" fill="#7a4a23"/><rect x="726" y="39" width="2" height="2" fill="#7a4a23"/><rect x="718" y="41" width="2" height="2" fill="#7a4a23"/><rect x="726" y="41" width="2" height="2" fill="#7a4a23"/><rect x="718" y="43" width="2" height="2" fill="#7a4a23"/><rect x="720" y="43" width="2" height="2" fill="#7a4a23"/><rect x="722" y="43" width="2" height="2" fill="#7a4a23"/><rect x="724" y="43" width="2" height="2" fill="#7a4a23"/><rect x="726" y="43" width="2" height="2" fill="#7a4a23"/><rect x="718" y="45" width="2" height="2" fill="#7a4a23"/><rect x="726" y="45" width="2" height="2" fill="#7a4a23"/><rect x="718" y="47" width="2" height="2" fill="#7a4a23"/><rect x="726" y="47" width="2" height="2" fill="#7a4a23"/><rect x="718" y="49" width="2" height="2" fill="#7a4a23"/><rect x="726" y="49" width="2" height="2" fill="#7a4a23"/><rect x="730" y="37" width="2" height="2" fill="#7a4a23"/><rect x="738" y="37" width="2" height="2" fill="#7a4a23"/><rect x="730" y="39" width="2" height="2" fill="#7a4a23"/><rect x="738" y="39" width="2" height="2" fill="#7a4a23"/><rect x="732" y="41" width="2" height="2" fill="#7a4a23"/><rect x="736" y="41" width="2" height="2" fill="#7a4a23"/><rect x="734" y="43" width="2" height="2" fill="#7a4a23"/><rect x="734" y="45" width="2" height="2" fill="#7a4a23"/><rect x="734" y="47" width="2" height="2" fill="#7a4a23"/><rect x="734" y="49" width="2" height="2" fill="#7a4a23"/><rect x="744" y="37" width="2" height="2" fill="#7a4a23"/><rect x="746" y="37" width="2" height="2" fill="#7a4a23"/><rect x="748" y="37" width="2" height="2" fill="#7a4a23"/><rect x="742" y="39" width="2" height="2" fill="#7a4a23"/><rect x="750" y="39" width="2" height="2" fill="#7a4a23"/><rect x="742" y="41" width="2" height="2" fill="#7a4a23"/><rect x="750" y="41" width="2" height="2" fill="#7a4a23"/><rect x="742" y="43" width="2" height="2" fill="#7a4a23"/><rect x="744" y="43" width="2" height="2" fill="#7a4a23"/><rect x="746" y="43" width="2" height="2" fill="#7a4a23"/><rect x="748" y="43" width="2" height="2" fill="#7a4a23"/><rect x="750" y="43" width="2" height="2" fill="#7a4a23"/><rect x="742" y="45" width="2" height="2" fill="#7a4a23"/><rect x="750" y="45" width="2" height="2" fill="#7a4a23"/><rect x="742" y="47" width="2" height="2" fill="#7a4a23"/><rect x="750" y="47" width="2" height="2" fill="#7a4a23"/><rect x="742" y="49" width="2" height="2" fill="#7a4a23"/><rect x="750" y="49" width="2" height="2" fill="#7a4a23"/><rect x="754" y="37" width="2" height="2" fill="#7a4a23"/><rect x="762" y="37" width="2" height="2" fill="#7a4a23"/><rect x="754" y="39" width="2" height="2" fill="#7a4a23"/><rect x="756" y="39" width="2" height="2" fill="#7a4a23"/><rect x="762" y="39" width="2" height="2" fill="#7a4a23"/><rect x="754" y="41" width="2" height="2" fill="#7a4a23"/><rect x="758" y="41" width="2" height="2" fill="#7a4a23"/><rect x="762" y="41" width="2" height="2" fill="#7a4a23"/><rect x="754" y="43" width="2" height="2" fill="#7a4a23"/><rect x="758" y="43" width="2" height="2" fill="#7a4a23"/><rect x="762" y="43" width="2" height="2" fill="#7a4a23"/><rect x="754" y="45" width="2" height="2" fill="#7a4a23"/><rect x="758" y="45" width="2" height="2" fill="#7a4a23"/><rect x="762" y="45" width="2" height="2" fill="#7a4a23"/><rect x="754" y="47" width="2" height="2" fill="#7a4a23"/><rect x="760" y="47" width="2" height="2" fill="#7a4a23"/><rect x="762" y="47" width="2" height="2" fill="#7a4a23"/><rect x="754" y="49" width="2" height="2" fill="#7a4a23"/><rect x="762" y="49" width="2" height="2" fill="#7a4a23"/></g>

  <!-- wood-tone underline -->
  <g class="pf-underline">
    <rect x="36" y="66" width="236" height="3" fill="#7a4a23"/>
    <rect x="36" y="66" width="236" height="1" fill="#a06832"/>
  </g>

  <!-- social tile row -->
  <g class="pf-tile pf-tile-0">
    <rect x="36" y="87" width="232" height="64" fill="#3a2a14"/><rect x="37" y="88" width="230" height="62" fill="#7a4a23"/><rect x="38" y="89" width="228" height="60" fill="#3a2a14"/><rect x="39" y="90" width="226" height="58" fill="#e6d3a4"/>
    <rect x="103" y="98" width="3" height="3" fill="#7a4a23"/><rect x="106" y="98" width="3" height="3" fill="#7a4a23"/><rect x="109" y="98" width="3" height="3" fill="#7a4a23"/><rect x="112" y="98" width="3" height="3" fill="#7a4a23"/><rect x="100" y="101" width="3" height="3" fill="#7a4a23"/><rect x="100" y="104" width="3" height="3" fill="#7a4a23"/><rect x="100" y="107" width="3" height="3" fill="#7a4a23"/><rect x="109" y="107" width="3" height="3" fill="#7a4a23"/><rect x="112" y="107" width="3" height="3" fill="#7a4a23"/><rect x="100" y="110" width="3" height="3" fill="#7a4a23"/><rect x="112" y="110" width="3" height="3" fill="#7a4a23"/><rect x="100" y="113" width="3" height="3" fill="#7a4a23"/><rect x="112" y="113" width="3" height="3" fill="#7a4a23"/><rect x="103" y="116" width="3" height="3" fill="#7a4a23"/><rect x="106" y="116" width="3" height="3" fill="#7a4a23"/><rect x="109" y="116" width="3" height="3" fill="#7a4a23"/><rect x="118" y="98" width="3" height="3" fill="#7a4a23"/><rect x="121" y="98" width="3" height="3" fill="#7a4a23"/><rect x="124" y="98" width="3" height="3" fill="#7a4a23"/><rect x="127" y="98" width="3" height="3" fill="#7a4a23"/><rect x="130" y="98" width="3" height="3" fill="#7a4a23"/><rect x="124" y="101" width="3" height="3" fill="#7a4a23"/><rect x="124" y="104" width="3" height="3" fill="#7a4a23"/><rect x="124" y="107" width="3" height="3" fill="#7a4a23"/><rect x="124" y="110" width="3" height="3" fill="#7a4a23"/><rect x="124" y="113" width="3" height="3" fill="#7a4a23"/><rect x="118" y="116" width="3" height="3" fill="#7a4a23"/><rect x="121" y="116" width="3" height="3" fill="#7a4a23"/><rect x="124" y="116" width="3" height="3" fill="#7a4a23"/><rect x="127" y="116" width="3" height="3" fill="#7a4a23"/><rect x="130" y="116" width="3" height="3" fill="#7a4a23"/><rect x="136" y="98" width="3" height="3" fill="#7a4a23"/><rect x="139" y="98" width="3" height="3" fill="#7a4a23"/><rect x="142" y="98" width="3" height="3" fill="#7a4a23"/><rect x="145" y="98" width="3" height="3" fill="#7a4a23"/><rect x="148" y="98" width="3" height="3" fill="#7a4a23"/><rect x="142" y="101" width="3" height="3" fill="#7a4a23"/><rect x="142" y="104" width="3" height="3" fill="#7a4a23"/><rect x="142" y="107" width="3" height="3" fill="#7a4a23"/><rect x="142" y="110" width="3" height="3" fill="#7a4a23"/><rect x="142" y="113" width="3" height="3" fill="#7a4a23"/><rect x="142" y="116" width="3" height="3" fill="#7a4a23"/><rect x="154" y="98" width="3" height="3" fill="#7a4a23"/><rect x="166" y="98" width="3" height="3" fill="#7a4a23"/><rect x="154" y="101" width="3" height="3" fill="#7a4a23"/><rect x="166" y="101" width="3" height="3" fill="#7a4a23"/><rect x="154" y="104" width="3" height="3" fill="#7a4a23"/><rect x="166" y="104" width="3" height="3" fill="#7a4a23"/><rect x="154" y="107" width="3" height="3" fill="#7a4a23"/><rect x="157" y="107" width="3" height="3" fill="#7a4a23"/><rect x="160" y="107" width="3" height="3" fill="#7a4a23"/><rect x="163" y="107" width="3" height="3" fill="#7a4a23"/><rect x="166" y="107" width="3" height="3" fill="#7a4a23"/><rect x="154" y="110" width="3" height="3" fill="#7a4a23"/><rect x="166" y="110" width="3" height="3" fill="#7a4a23"/><rect x="154" y="113" width="3" height="3" fill="#7a4a23"/><rect x="166" y="113" width="3" height="3" fill="#7a4a23"/><rect x="154" y="116" width="3" height="3" fill="#7a4a23"/><rect x="166" y="116" width="3" height="3" fill="#7a4a23"/><rect x="172" y="98" width="3" height="3" fill="#7a4a23"/><rect x="184" y="98" width="3" height="3" fill="#7a4a23"/><rect x="172" y="101" width="3" height="3" fill="#7a4a23"/><rect x="184" y="101" width="3" height="3" fill="#7a4a23"/><rect x="172" y="104" width="3" height="3" fill="#7a4a23"/><rect x="184" y="104" width="3" height="3" fill="#7a4a23"/><rect x="172" y="107" width="3" height="3" fill="#7a4a23"/><rect x="184" y="107" width="3" height="3" fill="#7a4a23"/><rect x="172" y="110" width="3" height="3" fill="#7a4a23"/><rect x="184" y="110" width="3" height="3" fill="#7a4a23"/><rect x="172" y="113" width="3" height="3" fill="#7a4a23"/><rect x="184" y="113" width="3" height="3" fill="#7a4a23"/><rect x="175" y="116" width="3" height="3" fill="#7a4a23"/><rect x="178" y="116" width="3" height="3" fill="#7a4a23"/><rect x="181" y="116" width="3" height="3" fill="#7a4a23"/><rect x="190" y="98" width="3" height="3" fill="#7a4a23"/><rect x="193" y="98" width="3" height="3" fill="#7a4a23"/><rect x="196" y="98" width="3" height="3" fill="#7a4a23"/><rect x="199" y="98" width="3" height="3" fill="#7a4a23"/><rect x="190" y="101" width="3" height="3" fill="#7a4a23"/><rect x="202" y="101" width="3" height="3" fill="#7a4a23"/><rect x="190" y="104" width="3" height="3" fill="#7a4a23"/><rect x="202" y="104" width="3" height="3" fill="#7a4a23"/><rect x="190" y="107" width="3" height="3" fill="#7a4a23"/><rect x="193" y="107" width="3" height="3" fill="#7a4a23"/><rect x="196" y="107" width="3" height="3" fill="#7a4a23"/><rect x="199" y="107" width="3" height="3" fill="#7a4a23"/><rect x="190" y="110" width="3" height="3" fill="#7a4a23"/><rect x="202" y="110" width="3" height="3" fill="#7a4a23"/><rect x="190" y="113" width="3" height="3" fill="#7a4a23"/><rect x="202" y="113" width="3" height="3" fill="#7a4a23"/><rect x="190" y="116" width="3" height="3" fill="#7a4a23"/><rect x="193" y="116" width="3" height="3" fill="#7a4a23"/><rect x="196" y="116" width="3" height="3" fill="#7a4a23"/><rect x="199" y="116" width="3" height="3" fill="#7a4a23"/>
    <text x="152" y="138" text-anchor="middle" fill="#3d2818" font-family="ui-monospace, monospace" font-size="13" font-weight="700" letter-spacing="0.5">github.com/BounebRayan</text>
  </g>
  <g class="pf-tile pf-tile-1">
    <rect x="284" y="87" width="232" height="64" fill="#3a2a14"/><rect x="285" y="88" width="230" height="62" fill="#7a4a23"/><rect x="286" y="89" width="228" height="60" fill="#3a2a14"/><rect x="287" y="90" width="226" height="58" fill="#e6d3a4"/>
    <rect x="330" y="98" width="3" height="3" fill="#7a4a23"/><rect x="330" y="101" width="3" height="3" fill="#7a4a23"/><rect x="330" y="104" width="3" height="3" fill="#7a4a23"/><rect x="330" y="107" width="3" height="3" fill="#7a4a23"/><rect x="330" y="110" width="3" height="3" fill="#7a4a23"/><rect x="330" y="113" width="3" height="3" fill="#7a4a23"/><rect x="330" y="116" width="3" height="3" fill="#7a4a23"/><rect x="333" y="116" width="3" height="3" fill="#7a4a23"/><rect x="336" y="116" width="3" height="3" fill="#7a4a23"/><rect x="339" y="116" width="3" height="3" fill="#7a4a23"/><rect x="342" y="116" width="3" height="3" fill="#7a4a23"/><rect x="348" y="98" width="3" height="3" fill="#7a4a23"/><rect x="351" y="98" width="3" height="3" fill="#7a4a23"/><rect x="354" y="98" width="3" height="3" fill="#7a4a23"/><rect x="357" y="98" width="3" height="3" fill="#7a4a23"/><rect x="360" y="98" width="3" height="3" fill="#7a4a23"/><rect x="354" y="101" width="3" height="3" fill="#7a4a23"/><rect x="354" y="104" width="3" height="3" fill="#7a4a23"/><rect x="354" y="107" width="3" height="3" fill="#7a4a23"/><rect x="354" y="110" width="3" height="3" fill="#7a4a23"/><rect x="354" y="113" width="3" height="3" fill="#7a4a23"/><rect x="348" y="116" width="3" height="3" fill="#7a4a23"/><rect x="351" y="116" width="3" height="3" fill="#7a4a23"/><rect x="354" y="116" width="3" height="3" fill="#7a4a23"/><rect x="357" y="116" width="3" height="3" fill="#7a4a23"/><rect x="360" y="116" width="3" height="3" fill="#7a4a23"/><rect x="366" y="98" width="3" height="3" fill="#7a4a23"/><rect x="378" y="98" width="3" height="3" fill="#7a4a23"/><rect x="366" y="101" width="3" height="3" fill="#7a4a23"/><rect x="369" y="101" width="3" height="3" fill="#7a4a23"/><rect x="378" y="101" width="3" height="3" fill="#7a4a23"/><rect x="366" y="104" width="3" height="3" fill="#7a4a23"/><rect x="372" y="104" width="3" height="3" fill="#7a4a23"/><rect x="378" y="104" width="3" height="3" fill="#7a4a23"/><rect x="366" y="107" width="3" height="3" fill="#7a4a23"/><rect x="372" y="107" width="3" height="3" fill="#7a4a23"/><rect x="378" y="107" width="3" height="3" fill="#7a4a23"/><rect x="366" y="110" width="3" height="3" fill="#7a4a23"/><rect x="372" y="110" width="3" height="3" fill="#7a4a23"/><rect x="378" y="110" width="3" height="3" fill="#7a4a23"/><rect x="366" y="113" width="3" height="3" fill="#7a4a23"/><rect x="375" y="113" width="3" height="3" fill="#7a4a23"/><rect x="378" y="113" width="3" height="3" fill="#7a4a23"/><rect x="366" y="116" width="3" height="3" fill="#7a4a23"/><rect x="378" y="116" width="3" height="3" fill="#7a4a23"/><rect x="384" y="98" width="3" height="3" fill="#7a4a23"/><rect x="396" y="98" width="3" height="3" fill="#7a4a23"/><rect x="384" y="101" width="3" height="3" fill="#7a4a23"/><rect x="393" y="101" width="3" height="3" fill="#7a4a23"/><rect x="384" y="104" width="3" height="3" fill="#7a4a23"/><rect x="390" y="104" width="3" height="3" fill="#7a4a23"/><rect x="384" y="107" width="3" height="3" fill="#7a4a23"/><rect x="387" y="107" width="3" height="3" fill="#7a4a23"/><rect x="384" y="110" width="3" height="3" fill="#7a4a23"/><rect x="390" y="110" width="3" height="3" fill="#7a4a23"/><rect x="384" y="113" width="3" height="3" fill="#7a4a23"/><rect x="393" y="113" width="3" height="3" fill="#7a4a23"/><rect x="384" y="116" width="3" height="3" fill="#7a4a23"/><rect x="396" y="116" width="3" height="3" fill="#7a4a23"/><rect x="402" y="98" width="3" height="3" fill="#7a4a23"/><rect x="405" y="98" width="3" height="3" fill="#7a4a23"/><rect x="408" y="98" width="3" height="3" fill="#7a4a23"/><rect x="411" y="98" width="3" height="3" fill="#7a4a23"/><rect x="414" y="98" width="3" height="3" fill="#7a4a23"/><rect x="402" y="101" width="3" height="3" fill="#7a4a23"/><rect x="402" y="104" width="3" height="3" fill="#7a4a23"/><rect x="402" y="107" width="3" height="3" fill="#7a4a23"/><rect x="405" y="107" width="3" height="3" fill="#7a4a23"/><rect x="408" y="107" width="3" height="3" fill="#7a4a23"/><rect x="411" y="107" width="3" height="3" fill="#7a4a23"/><rect x="402" y="110" width="3" height="3" fill="#7a4a23"/><rect x="402" y="113" width="3" height="3" fill="#7a4a23"/><rect x="402" y="116" width="3" height="3" fill="#7a4a23"/><rect x="405" y="116" width="3" height="3" fill="#7a4a23"/><rect x="408" y="116" width="3" height="3" fill="#7a4a23"/><rect x="411" y="116" width="3" height="3" fill="#7a4a23"/><rect x="414" y="116" width="3" height="3" fill="#7a4a23"/><rect x="420" y="98" width="3" height="3" fill="#7a4a23"/><rect x="423" y="98" width="3" height="3" fill="#7a4a23"/><rect x="426" y="98" width="3" height="3" fill="#7a4a23"/><rect x="429" y="98" width="3" height="3" fill="#7a4a23"/><rect x="420" y="101" width="3" height="3" fill="#7a4a23"/><rect x="432" y="101" width="3" height="3" fill="#7a4a23"/><rect x="420" y="104" width="3" height="3" fill="#7a4a23"/><rect x="432" y="104" width="3" height="3" fill="#7a4a23"/><rect x="420" y="107" width="3" height="3" fill="#7a4a23"/><rect x="432" y="107" width="3" height="3" fill="#7a4a23"/><rect x="420" y="110" width="3" height="3" fill="#7a4a23"/><rect x="432" y="110" width="3" height="3" fill="#7a4a23"/><rect x="420" y="113" width="3" height="3" fill="#7a4a23"/><rect x="432" y="113" width="3" height="3" fill="#7a4a23"/><rect x="420" y="116" width="3" height="3" fill="#7a4a23"/><rect x="423" y="116" width="3" height="3" fill="#7a4a23"/><rect x="426" y="116" width="3" height="3" fill="#7a4a23"/><rect x="429" y="116" width="3" height="3" fill="#7a4a23"/><rect x="438" y="98" width="3" height="3" fill="#7a4a23"/><rect x="441" y="98" width="3" height="3" fill="#7a4a23"/><rect x="444" y="98" width="3" height="3" fill="#7a4a23"/><rect x="447" y="98" width="3" height="3" fill="#7a4a23"/><rect x="450" y="98" width="3" height="3" fill="#7a4a23"/><rect x="444" y="101" width="3" height="3" fill="#7a4a23"/><rect x="444" y="104" width="3" height="3" fill="#7a4a23"/><rect x="444" y="107" width="3" height="3" fill="#7a4a23"/><rect x="444" y="110" width="3" height="3" fill="#7a4a23"/><rect x="444" y="113" width="3" height="3" fill="#7a4a23"/><rect x="438" y="116" width="3" height="3" fill="#7a4a23"/><rect x="441" y="116" width="3" height="3" fill="#7a4a23"/><rect x="444" y="116" width="3" height="3" fill="#7a4a23"/><rect x="447" y="116" width="3" height="3" fill="#7a4a23"/><rect x="450" y="116" width="3" height="3" fill="#7a4a23"/><rect x="456" y="98" width="3" height="3" fill="#7a4a23"/><rect x="468" y="98" width="3" height="3" fill="#7a4a23"/><rect x="456" y="101" width="3" height="3" fill="#7a4a23"/><rect x="459" y="101" width="3" height="3" fill="#7a4a23"/><rect x="468" y="101" width="3" height="3" fill="#7a4a23"/><rect x="456" y="104" width="3" height="3" fill="#7a4a23"/><rect x="462" y="104" width="3" height="3" fill="#7a4a23"/><rect x="468" y="104" width="3" height="3" fill="#7a4a23"/><rect x="456" y="107" width="3" height="3" fill="#7a4a23"/><rect x="462" y="107" width="3" height="3" fill="#7a4a23"/><rect x="468" y="107" width="3" height="3" fill="#7a4a23"/><rect x="456" y="110" width="3" height="3" fill="#7a4a23"/><rect x="462" y="110" width="3" height="3" fill="#7a4a23"/><rect x="468" y="110" width="3" height="3" fill="#7a4a23"/><rect x="456" y="113" width="3" height="3" fill="#7a4a23"/><rect x="465" y="113" width="3" height="3" fill="#7a4a23"/><rect x="468" y="113" width="3" height="3" fill="#7a4a23"/><rect x="456" y="116" width="3" height="3" fill="#7a4a23"/><rect x="468" y="116" width="3" height="3" fill="#7a4a23"/>
    <text x="400" y="138" text-anchor="middle" fill="#3d2818" font-family="ui-monospace, monospace" font-size="13" font-weight="700" letter-spacing="0.5">in/rayan-bouneb</text>
  </g>
  <g class="pf-tile pf-tile-2">
    <rect x="532" y="87" width="232" height="64" fill="#3a2a14"/><rect x="533" y="88" width="230" height="62" fill="#7a4a23"/><rect x="534" y="89" width="228" height="60" fill="#3a2a14"/><rect x="535" y="90" width="226" height="58" fill="#e6d3a4"/>
    <rect x="587" y="98" width="3" height="3" fill="#7a4a23"/><rect x="599" y="98" width="3" height="3" fill="#7a4a23"/><rect x="587" y="101" width="3" height="3" fill="#7a4a23"/><rect x="599" y="101" width="3" height="3" fill="#7a4a23"/><rect x="587" y="104" width="3" height="3" fill="#7a4a23"/><rect x="599" y="104" width="3" height="3" fill="#7a4a23"/><rect x="587" y="107" width="3" height="3" fill="#7a4a23"/><rect x="593" y="107" width="3" height="3" fill="#7a4a23"/><rect x="599" y="107" width="3" height="3" fill="#7a4a23"/><rect x="587" y="110" width="3" height="3" fill="#7a4a23"/><rect x="593" y="110" width="3" height="3" fill="#7a4a23"/><rect x="599" y="110" width="3" height="3" fill="#7a4a23"/><rect x="587" y="113" width="3" height="3" fill="#7a4a23"/><rect x="590" y="113" width="3" height="3" fill="#7a4a23"/><rect x="596" y="113" width="3" height="3" fill="#7a4a23"/><rect x="599" y="113" width="3" height="3" fill="#7a4a23"/><rect x="587" y="116" width="3" height="3" fill="#7a4a23"/><rect x="599" y="116" width="3" height="3" fill="#7a4a23"/><rect x="605" y="98" width="3" height="3" fill="#7a4a23"/><rect x="608" y="98" width="3" height="3" fill="#7a4a23"/><rect x="611" y="98" width="3" height="3" fill="#7a4a23"/><rect x="614" y="98" width="3" height="3" fill="#7a4a23"/><rect x="617" y="98" width="3" height="3" fill="#7a4a23"/><rect x="605" y="101" width="3" height="3" fill="#7a4a23"/><rect x="605" y="104" width="3" height="3" fill="#7a4a23"/><rect x="605" y="107" width="3" height="3" fill="#7a4a23"/><rect x="608" y="107" width="3" height="3" fill="#7a4a23"/><rect x="611" y="107" width="3" height="3" fill="#7a4a23"/><rect x="614" y="107" width="3" height="3" fill="#7a4a23"/><rect x="605" y="110" width="3" height="3" fill="#7a4a23"/><rect x="605" y="113" width="3" height="3" fill="#7a4a23"/><rect x="605" y="116" width="3" height="3" fill="#7a4a23"/><rect x="608" y="116" width="3" height="3" fill="#7a4a23"/><rect x="611" y="116" width="3" height="3" fill="#7a4a23"/><rect x="614" y="116" width="3" height="3" fill="#7a4a23"/><rect x="617" y="116" width="3" height="3" fill="#7a4a23"/><rect x="623" y="98" width="3" height="3" fill="#7a4a23"/><rect x="626" y="98" width="3" height="3" fill="#7a4a23"/><rect x="629" y="98" width="3" height="3" fill="#7a4a23"/><rect x="632" y="98" width="3" height="3" fill="#7a4a23"/><rect x="623" y="101" width="3" height="3" fill="#7a4a23"/><rect x="635" y="101" width="3" height="3" fill="#7a4a23"/><rect x="623" y="104" width="3" height="3" fill="#7a4a23"/><rect x="635" y="104" width="3" height="3" fill="#7a4a23"/><rect x="623" y="107" width="3" height="3" fill="#7a4a23"/><rect x="626" y="107" width="3" height="3" fill="#7a4a23"/><rect x="629" y="107" width="3" height="3" fill="#7a4a23"/><rect x="632" y="107" width="3" height="3" fill="#7a4a23"/><rect x="623" y="110" width="3" height="3" fill="#7a4a23"/><rect x="635" y="110" width="3" height="3" fill="#7a4a23"/><rect x="623" y="113" width="3" height="3" fill="#7a4a23"/><rect x="635" y="113" width="3" height="3" fill="#7a4a23"/><rect x="623" y="116" width="3" height="3" fill="#7a4a23"/><rect x="626" y="116" width="3" height="3" fill="#7a4a23"/><rect x="629" y="116" width="3" height="3" fill="#7a4a23"/><rect x="632" y="116" width="3" height="3" fill="#7a4a23"/><rect x="644" y="98" width="3" height="3" fill="#7a4a23"/><rect x="647" y="98" width="3" height="3" fill="#7a4a23"/><rect x="650" y="98" width="3" height="3" fill="#7a4a23"/><rect x="653" y="98" width="3" height="3" fill="#7a4a23"/><rect x="641" y="101" width="3" height="3" fill="#7a4a23"/><rect x="641" y="104" width="3" height="3" fill="#7a4a23"/><rect x="644" y="107" width="3" height="3" fill="#7a4a23"/><rect x="647" y="107" width="3" height="3" fill="#7a4a23"/><rect x="650" y="107" width="3" height="3" fill="#7a4a23"/><rect x="653" y="110" width="3" height="3" fill="#7a4a23"/><rect x="653" y="113" width="3" height="3" fill="#7a4a23"/><rect x="641" y="116" width="3" height="3" fill="#7a4a23"/><rect x="644" y="116" width="3" height="3" fill="#7a4a23"/><rect x="647" y="116" width="3" height="3" fill="#7a4a23"/><rect x="650" y="116" width="3" height="3" fill="#7a4a23"/><rect x="659" y="98" width="3" height="3" fill="#7a4a23"/><rect x="662" y="98" width="3" height="3" fill="#7a4a23"/><rect x="665" y="98" width="3" height="3" fill="#7a4a23"/><rect x="668" y="98" width="3" height="3" fill="#7a4a23"/><rect x="671" y="98" width="3" height="3" fill="#7a4a23"/><rect x="665" y="101" width="3" height="3" fill="#7a4a23"/><rect x="665" y="104" width="3" height="3" fill="#7a4a23"/><rect x="665" y="107" width="3" height="3" fill="#7a4a23"/><rect x="665" y="110" width="3" height="3" fill="#7a4a23"/><rect x="665" y="113" width="3" height="3" fill="#7a4a23"/><rect x="659" y="116" width="3" height="3" fill="#7a4a23"/><rect x="662" y="116" width="3" height="3" fill="#7a4a23"/><rect x="665" y="116" width="3" height="3" fill="#7a4a23"/><rect x="668" y="116" width="3" height="3" fill="#7a4a23"/><rect x="671" y="116" width="3" height="3" fill="#7a4a23"/><rect x="677" y="98" width="3" height="3" fill="#7a4a23"/><rect x="680" y="98" width="3" height="3" fill="#7a4a23"/><rect x="683" y="98" width="3" height="3" fill="#7a4a23"/><rect x="686" y="98" width="3" height="3" fill="#7a4a23"/><rect x="689" y="98" width="3" height="3" fill="#7a4a23"/><rect x="683" y="101" width="3" height="3" fill="#7a4a23"/><rect x="683" y="104" width="3" height="3" fill="#7a4a23"/><rect x="683" y="107" width="3" height="3" fill="#7a4a23"/><rect x="683" y="110" width="3" height="3" fill="#7a4a23"/><rect x="683" y="113" width="3" height="3" fill="#7a4a23"/><rect x="683" y="116" width="3" height="3" fill="#7a4a23"/><rect x="695" y="98" width="3" height="3" fill="#7a4a23"/><rect x="698" y="98" width="3" height="3" fill="#7a4a23"/><rect x="701" y="98" width="3" height="3" fill="#7a4a23"/><rect x="704" y="98" width="3" height="3" fill="#7a4a23"/><rect x="707" y="98" width="3" height="3" fill="#7a4a23"/><rect x="695" y="101" width="3" height="3" fill="#7a4a23"/><rect x="695" y="104" width="3" height="3" fill="#7a4a23"/><rect x="695" y="107" width="3" height="3" fill="#7a4a23"/><rect x="698" y="107" width="3" height="3" fill="#7a4a23"/><rect x="701" y="107" width="3" height="3" fill="#7a4a23"/><rect x="704" y="107" width="3" height="3" fill="#7a4a23"/><rect x="695" y="110" width="3" height="3" fill="#7a4a23"/><rect x="695" y="113" width="3" height="3" fill="#7a4a23"/><rect x="695" y="116" width="3" height="3" fill="#7a4a23"/><rect x="698" y="116" width="3" height="3" fill="#7a4a23"/><rect x="701" y="116" width="3" height="3" fill="#7a4a23"/><rect x="704" y="116" width="3" height="3" fill="#7a4a23"/><rect x="707" y="116" width="3" height="3" fill="#7a4a23"/>
    <text x="648" y="138" text-anchor="middle" fill="#3d2818" font-family="ui-monospace, monospace" font-size="13" font-weight="700" letter-spacing="0.5">rayanbouneb.vercel.app</text>
  </g>
  

  <!-- attribution -->
  <text x="322" y="178" fill="#7a4a23" font-family="ui-monospace, monospace" font-size="11" font-style="italic">made with</text>
  <g class="pf-heart-beat"><rect x="391.4" y="168" width="2" height="2" fill="#d04a30"/><rect x="393.4" y="168" width="2" height="2" fill="#d04a30"/><rect x="397.4" y="168" width="2" height="2" fill="#d04a30"/><rect x="399.4" y="168" width="2" height="2" fill="#d04a30"/><rect x="389.4" y="170" width="2" height="2" fill="#d04a30"/><rect x="391.4" y="170" width="2" height="2" fill="#d04a30"/><rect x="393.4" y="170" width="2" height="2" fill="#d04a30"/><rect x="395.4" y="170" width="2" height="2" fill="#d04a30"/><rect x="397.4" y="170" width="2" height="2" fill="#d04a30"/><rect x="399.4" y="170" width="2" height="2" fill="#d04a30"/><rect x="401.4" y="170" width="2" height="2" fill="#d04a30"/><rect x="389.4" y="172" width="2" height="2" fill="#d04a30"/><rect x="391.4" y="172" width="2" height="2" fill="#d04a30"/><rect x="393.4" y="172" width="2" height="2" fill="#d04a30"/><rect x="395.4" y="172" width="2" height="2" fill="#d04a30"/><rect x="397.4" y="172" width="2" height="2" fill="#d04a30"/><rect x="399.4" y="172" width="2" height="2" fill="#d04a30"/><rect x="401.4" y="172" width="2" height="2" fill="#d04a30"/><rect x="391.4" y="174" width="2" height="2" fill="#d04a30"/><rect x="393.4" y="174" width="2" height="2" fill="#d04a30"/><rect x="395.4" y="174" width="2" height="2" fill="#d04a30"/><rect x="397.4" y="174" width="2" height="2" fill="#d04a30"/><rect x="399.4" y="174" width="2" height="2" fill="#d04a30"/><rect x="393.4" y="176" width="2" height="2" fill="#d04a30"/><rect x="395.4" y="176" width="2" height="2" fill="#d04a30"/><rect x="397.4" y="176" width="2" height="2" fill="#d04a30"/><rect x="395.4" y="178" width="2" height="2" fill="#d04a30"/></g>
  <text x="411.4" y="178" fill="#7a4a23" font-family="ui-monospace, monospace" font-size="11" font-style="italic">by ryme.md</text>
</svg>